<?xml version="1.0" standalone="no"?>
<!DOCTYPE svg PUBLIC "-//W3C//DTD SVG 20010904//EN"
 "http://www.w3.org/TR/2001/REC-SVG-20010904/DTD/svg10.dtd">
<svg version="1.0" xmlns="http://www.w3.org/2000/svg"
 width="500.000000pt" height="500.000000pt" viewBox="0 0 500.000000 500.000000"
 preserveAspectRatio="xMidYMid meet">

<g transform="translate(0.000000,500.000000) scale(0.100000,-0.100000)"
fill="#000000" stroke="none">
<path d="M2260 3748 c-335 -72 -592 -259 -754 -550 -93 -168 -128 -323 -124
-552 l2 -158 -49 -20 c-28 -11 -79 -30 -115 -43 -36 -12 -90 -33 -120 -45 -30
-12 -100 -38 -155 -57 -120 -43 -154 -70 -139 -110 6 -17 18 -29 31 -31 18 -3
309 102 521 187 l53 21 10 -28 c24 -62 19 -75 -44 -97 -56 -20 -97 -47 -97
-63 0 -4 6 -17 14 -28 14 -19 16 -19 93 9 43 15 82 27 85 27 3 0 18 -20 31
-45 29 -52 31 -50 -61 -80 -54 -17 -72 -37 -72 -77 0 -55 30 -59 144 -22 l81
26 95 -95 c140 -140 283 -225 475 -284 85 -25 101 -27 290 -28 181 0 208 2
285 24 298 83 554 291 689 560 29 57 52 114 127 324 35 100 35 242 -2 330 -14
34 -39 105 -56 157 -39 120 -85 214 -155 311 l-55 77 -103 16 c-57 9 -116 16
-132 17 l-28 1 28 8 c15 5 57 12 92 15 36 4 65 11 65 15 0 13 -79 80 -148 124
-130 84 -241 130 -390 161 -83 17 -338 19 -412 3z m705 -613 c40 -39 32 -87
-17 -98 -15 -4 -34 -15 -44 -24 -9 -10 -29 -19 -43 -21 -14 -2 -27 -7 -29 -13
-2 -5 -10 -9 -18 -9 -8 0 -14 -5 -14 -11 0 -6 -7 -8 -16 -5 -9 3 -21 3 -27 -1
-7 -4 -25 -9 -42 -10 -49 -4 -55 -6 -55 -16 0 -5 -7 -7 -15 -3 -8 3 -15 1 -15
-5 0 -6 -4 -8 -8 -5 -9 6 -87 -15 -98 -27 -4 -4 -18 -7 -30 -7 -13 0 -25 -4
-28 -8 -3 -5 -22 -9 -43 -9 -21 0 -49 -5 -61 -12 -12 -6 -22 -9 -22 -5 0 4
-10 -2 -23 -14 -13 -12 -26 -20 -28 -17 -6 5 -85 -18 -131 -39 -62 -27 -282
-105 -287 -101 -2 3 5 7 15 11 135 47 451 189 699 316 171 86 320 157 333 158
13 0 34 -11 47 -25z m308 -85 c35 -39 34 -52 -3 -73 -16 -10 -30 -15 -30 -11
0 3 -11 -1 -24 -10 -17 -10 -26 -12 -28 -4 -3 7 -13 5 -30 -6 -17 -11 -25 -23
-21 -34 4 -13 3 -14 -5 -3 -12 16 -25 4 -91 -82 -90 -118 -233 -234 -373 -302
-68 -33 -41 -14 68 50 171 99 322 271 374 425 18 53 33 78 49 86 32 17 80 1
114 -36z m226 -112 c12 -33 -15 -141 -58 -232 -38 -80 -116 -196 -133 -196 -4
0 12 25 37 56 81 99 134 226 138 332 1 34 3 62 5 62 1 0 6 -10 11 -22z m-319
-2 c0 -3 -4 -8 -10 -11 -5 -3 -10 -1 -10 4 0 6 5 11 10 11 6 0 10 -2 10 -4z
m-1403 -302 c-16 -9 -31 -13 -34 -10 -3 3 5 10 18 15 37 15 47 12 16 -5z m-57
-24 c-8 -5 -19 -10 -25 -10 -5 0 -3 5 5 10 8 5 20 10 25 10 6 0 3 -5 -5 -10z
m-80 -30 c-8 -5 -19 -10 -25 -10 -5 0 -3 5 5 10 8 5 20 10 25 10 6 0 3 -5 -5
-10z m940 -100 c-8 -5 -19 -10 -25 -10 -5 0 -3 5 5 10 8 5 20 10 25 10 6 0 3
-5 -5 -10z m610 -74 c0 -2 -8 -10 -17 -17 -16 -13 -17 -12 -4 4 13 16 21 21
21 13z"/>
<path d="M1071 2138 c-14 -36 5 -60 42 -56 27 3 33 8 35 32 4 32 -10 46 -46
46 -14 0 -26 -8 -31 -22z"/>
<path d="M1270 1155 c0 -24 -2 -25 -65 -25 l-65 0 0 -40 c0 -22 5 -40 10 -40
6 0 10 11 10 25 0 24 2 25 65 25 l65 0 0 40 c0 22 -4 40 -10 40 -5 0 -10 -11
-10 -25z"/>
<path d="M1480 990 l0 -190 -30 0 c-20 0 -30 -5 -30 -15 0 -11 11 -15 40 -15
l40 0 0 205 c0 130 -4 205 -10 205 -6 0 -10 -70 -10 -190z"/>
<path d="M1940 985 c0 -138 -3 -195 -11 -195 -8 0 -8 -5 1 -15 7 -8 16 -15 21
-15 5 0 9 94 9 210 0 133 -4 210 -10 210 -6 0 -10 -72 -10 -195z"/>
<path d="M2374 1153 l-6 -31 -57 5 c-41 4 -66 1 -88 -10 -49 -26 -80 -115 -53
-157 8 -12 10 -9 10 13 0 38 27 92 54 110 33 22 81 29 119 19 35 -10 35 -9 42
25 4 21 2 40 -4 46 -8 8 -13 2 -17 -20z"/>
<path d="M2620 1035 c0 -90 4 -145 10 -145 6 0 10 55 10 145 0 90 -4 145 -10
145 -6 0 -10 -55 -10 -145z"/>
<path d="M3501 1175 c-1 -6 12 -44 28 -85 17 -41 30 -68 30 -60 0 17 -58 160
-58 145z"/>
<path d="M3816 990 c-42 -105 -76 -197 -76 -206 0 -46 32 13 106 194 70 172
80 202 64 202 -14 0 -34 -40 -94 -190z"/>
<path d="M3670 1164 c0 -13 53 -145 57 -141 3 4 -45 139 -53 146 -2 2 -4 0 -4
-5z"/>
<path d="M2994 1096 c-29 -29 -34 -41 -34 -82 0 -27 5 -56 10 -64 7 -11 10 -2
10 32 0 87 85 149 164 120 l31 -11 -24 19 c-16 14 -38 20 -73 20 -44 0 -54 -4
-84 -34z"/>
<path d="M3291 1014 c1 -94 -38 -161 -116 -202 -42 -22 -150 -21 -195 1 -30
15 -32 16 -15 1 50 -41 157 -58 218 -35 39 15 99 72 114 110 17 39 19 142 4
168 -7 14 -10 2 -10 -43z"/>
<path d="M1250 990 c0 -30 -1 -30 -55 -30 l-55 0 0 -80 c0 -79 0 -80 -25 -80
-16 0 -25 -6 -25 -15 0 -10 11 -15 35 -15 l34 0 3 83 3 82 53 3 52 3 0 40 c0
21 -4 39 -10 39 -5 0 -10 -13 -10 -30z"/>
<path d="M1710 906 l0 -106 -30 0 c-20 0 -30 -5 -30 -15 0 -11 11 -15 40 -15
l40 0 0 114 c0 66 -4 117 -10 121 -6 4 -10 -32 -10 -99z"/>
<path d="M2390 902 c0 -75 -1 -79 -25 -90 -36 -17 -129 -15 -173 3 l-37 15 23
-20 c44 -37 124 -49 195 -29 l37 10 0 94 c0 57 -4 95 -10 95 -6 0 -10 -33 -10
-78z"/>
<path d="M3606 881 c-26 -67 -34 -97 -27 -109 8 -14 13 -8 31 33 47 109 51
121 42 145 -8 20 -13 12 -46 -69z"/>
<path d="M2750 825 c0 -25 0 -25 -95 -25 -78 0 -95 -3 -95 -15 0 -12 18 -15
105 -15 l105 0 0 40 c0 22 -4 40 -10 40 -5 0 -10 -11 -10 -25z"/>
</g>
</svg>
